<svg xmlns="http://www.w3.org/2000/svg" xmlns:xlink="http://www.w3.org/1999/xlink" preserveAspectRatio="xMidYMid" width="20.97" height="21.781" viewBox="0 0 20.97 21.781">
  <defs>
    <style>
      .cls-1 {
        fill: #fff;
        fill-rule: evenodd;
      }
    </style>
  </defs>
  <path d="M20.800,0.719 C20.600,1.119 20.000,1.919 19.400,2.519 C18.400,3.519 16.800,4.519 16.200,4.919 C16.600,5.119 17.600,5.319 19.600,4.119 C19.400,4.919 19.200,5.719 17.800,6.919 C16.200,8.119 14.800,7.519 13.400,9.319 C14.000,9.519 14.600,9.519 16.600,8.719 C16.400,9.319 16.200,9.919 14.800,10.919 C13.400,11.919 11.984,11.627 9.800,12.719 C7.000,14.119 4.000,19.319 3.400,20.519 C2.556,22.207 2.000,22.119 2.200,20.719 C2.400,19.319 3.000,17.919 4.800,14.719 C6.600,11.519 9.079,7.806 12.600,4.519 C15.600,1.719 18.600,0.719 20.200,0.119 C21.038,-0.195 21.123,0.074 20.800,0.719 ZM7.000,4.919 L2.200,4.919 C2.154,4.919 2.091,4.927 2.031,4.934 C2.016,5.001 2.000,5.068 2.000,5.119 L2.000,12.919 C2.000,13.471 1.552,13.919 1.000,13.919 C0.448,13.919 0.000,13.471 0.000,12.919 L0.000,4.919 C0.000,3.919 0.952,2.919 2.000,2.919 L7.000,2.919 C7.552,2.919 8.000,3.367 8.000,3.919 C8.000,4.471 7.552,4.919 7.000,4.919 ZM10.000,17.919 L17.600,17.919 C17.650,17.919 17.718,17.914 17.784,17.909 C17.792,17.841 17.800,17.772 17.800,17.719 L17.800,13.919 C17.800,13.367 18.248,12.919 18.800,12.919 C19.352,12.919 19.800,13.367 19.800,13.919 C19.800,13.919 19.800,17.071 19.800,18.119 C19.800,19.167 19.000,19.919 17.800,19.919 L10.000,19.919 C9.448,19.919 9.000,19.471 9.000,18.919 C9.000,18.367 9.448,17.919 10.000,17.919 Z" class="cls-1"/>
</svg>
