<svg xmlns="http://www.w3.org/2000/svg" xmlns:xlink="http://www.w3.org/1999/xlink" preserveAspectRatio="xMidYMid" width="21.125" height="19.156" viewBox="0 0 21.125 19.156">
  <defs>
    <style>
      .cls-1 {
        fill: #65757f;
        fill-rule: evenodd;
      }
    </style>
  </defs>
  <path d="M20.782,10.766 C20.382,11.166 19.586,11.170 19.182,10.766 C18.982,10.566 18.782,10.366 18.782,10.366 C18.782,10.366 18.382,9.766 18.182,10.766 C18.025,11.550 16.381,17.566 16.181,18.366 C15.982,19.166 14.982,19.166 14.582,19.166 C14.293,19.166 12.144,19.166 10.960,19.166 C10.500,19.166 10.182,19.166 10.182,19.166 C8.996,19.166 6.840,19.166 6.551,19.166 C6.150,19.166 5.148,19.166 4.948,18.362 C4.748,17.557 3.101,11.510 2.944,10.722 C2.744,9.717 2.343,10.320 2.343,10.320 C2.343,10.320 2.142,10.521 1.942,10.722 C1.536,11.128 0.739,11.124 0.338,10.722 C-0.069,10.313 -0.200,9.563 0.338,9.113 C1.541,8.108 9.357,0.870 9.958,0.267 C10.359,-0.135 10.760,-0.135 11.161,0.267 C11.243,0.350 11.318,0.452 11.389,0.566 C12.771,1.878 19.660,8.231 20.782,9.166 C21.319,9.613 21.188,10.359 20.782,10.766 ZM10.578,15.781 C11.243,15.781 11.782,15.243 11.782,14.578 C11.782,13.914 11.243,13.375 10.578,13.375 C9.914,13.375 9.375,13.914 9.375,14.578 C9.375,15.243 9.914,15.781 10.578,15.781 ZM10.581,6.566 C9.256,6.566 8.182,7.596 8.182,8.866 C8.182,10.136 9.256,11.166 10.581,11.166 C11.907,11.166 12.982,10.136 12.982,8.866 C12.982,7.596 11.907,6.566 10.581,6.566 Z" class="cls-1"/>
</svg>
