<svg xmlns="http://www.w3.org/2000/svg" xmlns:xlink="http://www.w3.org/1999/xlink" preserveAspectRatio="xMidYMid" width="20" height="19.156" viewBox="0 0 20 19.156">
  <defs>
    <style>
      .cls-1 {
        fill: #667580;
        fill-rule: evenodd;
      }
    </style>
  </defs>
  <path d="M10.838,6.566 C10.438,6.966 9.838,6.966 9.437,6.566 C9.076,6.204 4.165,2.158 1.592,0.042 C1.723,0.015 1.860,0.000 2.000,0.000 L18.000,0.000 C18.214,0.000 18.416,0.042 18.609,0.104 C16.013,2.240 11.182,6.222 10.838,6.566 ZM9.282,9.469 C9.753,9.858 10.516,9.858 10.986,9.469 L20.000,2.135 L20.000,12.000 C20.000,13.105 19.105,14.000 18.000,14.000 L7.003,14.000 C5.765,15.235 2.151,18.652 1.838,18.966 C1.638,19.166 1.238,19.166 1.238,19.166 C0.638,19.166 0.038,18.449 0.038,17.566 C0.038,17.566 0.038,15.016 0.038,12.373 C0.015,12.252 0.000,12.128 0.000,12.000 L0.000,2.000 C0.000,1.972 0.007,1.946 0.008,1.919 L9.282,9.469 Z" class="cls-1"/>
</svg>
