<svg xmlns="http://www.w3.org/2000/svg" xmlns:xlink="http://www.w3.org/1999/xlink" preserveAspectRatio="xMidYMid" width="16.344" height="20.313" viewBox="0 0 16.344 20.313">
  <defs>
    <style>
      .cls-1 {
        fill: #667580;
        fill-rule: evenodd;
      }
    </style>
  </defs>
  <path d="M16.344,7.313 C16.344,7.851 16.253,8.365 16.124,8.863 C16.120,8.899 16.136,8.937 16.128,8.972 C15.509,11.445 14.891,13.919 15.097,15.980 C15.283,17.837 14.685,18.453 13.036,17.834 C11.387,17.216 1.663,13.590 0.670,13.094 C-0.567,12.476 0.052,11.445 1.288,10.415 C2.905,9.067 3.290,6.963 4.410,5.050 C5.314,2.755 7.540,1.125 10.156,1.125 C10.335,1.125 10.503,1.163 10.678,1.178 C10.917,0.496 11.549,0.000 12.313,0.000 C13.279,0.000 14.063,0.784 14.063,1.750 C14.063,1.993 14.012,2.224 13.923,2.435 C15.386,3.567 16.344,5.320 16.344,7.313 ZM11.312,19.098 C10.811,19.829 9.970,20.308 9.017,20.308 C7.480,20.308 6.235,19.062 6.235,17.525 C6.235,17.425 6.240,17.325 6.250,17.227 C8.090,17.834 9.120,18.247 11.312,19.098 Z" class="cls-1"/>
</svg>
