<svg xmlns="http://www.w3.org/2000/svg" xmlns:xlink="http://www.w3.org/1999/xlink" preserveAspectRatio="xMidYMid" width="17.03" height="17" viewBox="0 0 17.03 17">
  <defs>
    <style>
      .cls-1 {
        fill: #8899a6;
        fill-rule: evenodd;
      }
    </style>
  </defs>
  <path d="M16.722,6.428 C16.345,6.671 15.501,7.096 14.776,7.450 C14.884,8.156 14.864,8.860 14.741,9.542 C15.453,9.921 16.280,10.375 16.649,10.631 C17.088,10.936 16.911,11.298 16.776,11.607 C16.776,11.607 16.532,12.169 16.506,12.227 C16.371,12.537 16.227,12.912 15.704,12.800 C15.272,12.707 14.395,12.420 13.640,12.162 C13.210,12.758 12.677,13.284 12.050,13.711 C12.285,14.481 12.548,15.389 12.628,15.831 C12.722,16.355 12.341,16.486 12.026,16.610 C11.967,16.633 11.396,16.858 11.396,16.858 C11.081,16.982 10.712,17.145 10.423,16.698 C10.179,16.321 9.752,15.477 9.397,14.754 C8.689,14.862 7.983,14.841 7.298,14.718 C6.919,15.428 6.462,16.256 6.206,16.624 C5.901,17.061 5.538,16.885 5.228,16.751 C5.170,16.725 4.607,16.481 4.607,16.481 C4.297,16.346 3.920,16.201 4.033,15.681 C4.126,15.249 4.415,14.369 4.673,13.615 C4.074,13.184 3.545,12.650 3.118,12.021 C2.386,12.241 1.571,12.474 1.160,12.547 C0.636,12.641 0.504,12.261 0.380,11.946 C0.357,11.888 0.132,11.317 0.132,11.317 C0.008,11.003 -0.156,10.635 0.292,10.347 C0.642,10.121 1.397,9.736 2.083,9.399 C1.965,8.642 1.987,7.886 2.134,7.158 C1.457,6.795 0.709,6.381 0.365,6.142 C-0.072,5.838 0.104,5.476 0.239,5.166 C0.264,5.108 0.509,4.546 0.509,4.546 C0.644,4.237 0.789,3.861 1.310,3.973 C1.726,4.062 2.560,4.333 3.295,4.583 C3.715,4.022 4.221,3.521 4.820,3.116 C4.597,2.381 4.362,1.561 4.288,1.149 C4.193,0.623 4.574,0.492 4.889,0.368 C4.889,0.368 5.460,0.143 5.519,0.120 C5.834,-0.004 6.202,-0.167 6.492,0.282 C6.719,0.634 7.107,1.394 7.447,2.083 C8.203,1.965 8.958,1.987 9.685,2.133 C10.050,1.453 10.467,0.701 10.708,0.356 C11.014,-0.083 11.376,0.093 11.687,0.228 C11.687,0.228 12.250,0.472 12.307,0.497 C12.618,0.632 12.994,0.776 12.881,1.299 C12.791,1.716 12.518,2.552 12.266,3.289 C12.827,3.706 13.326,4.210 13.732,4.804 C14.504,4.569 15.412,4.306 15.854,4.227 C16.380,4.133 16.512,4.513 16.636,4.827 C16.636,4.827 16.861,5.398 16.884,5.456 C17.008,5.771 17.172,6.139 16.722,6.428 ZM12.366,6.870 C11.509,4.700 9.053,3.633 6.879,4.488 C4.704,5.343 3.636,7.795 4.493,9.966 C5.349,12.136 7.806,13.202 9.980,12.348 C12.154,11.493 13.222,9.040 12.366,6.870 Z" class="cls-1"/>
</svg>
